# xmcd CD database file
#
# Track frame offsets:
#	150
#	4477
#	22877
#	67287
#	75010
#	115900
#	120235
#	163367
#	171920
#	213575
#	230110
#
# Disc length: 3110 seconds
#
# Revision: 0
# Processed by: cddbd v1.5.1PL0 Copyright (c) Steve Scherf et al.
# Submitted via: CDex 1.51
#
DISCID=910c240b
DTITLE=葦プロダクション - NGナイト ラムネ&40 EX2 ユラユラ銀河帝国大混戦！ <第一章 幸せを求めて>
DYEAR=1992
DGENRE=Anime
TTITLE0=グランドプロローグ 愛は地球を救うってか？
TTITLE1=Quo Vadis? -何処へ-
TTITLE2=第1話「甘えん坊皇帝」
TTITLE3=サムライオンお子様ミニ劇場・その1 おどろきのココアさん
TTITLE4=第2話「影の軍団あらわる」
TTITLE5=サムライオンお子様ミニ劇場・その2 おとこの勝負
TTITLE6=第3話「燃えよ勇者」
TTITLE7=サムライオンお子様ミニ劇場・その3 レスカ心の旅
TTITLE8=第4話「さっそくちっそく危機一髪！」
TTITLE9=プワゾン・チュチュ
TTITLE10=暴走する大予告篇
EXTD=YEAR: 1992
EXTT0=
EXTT1=
EXTT2=
EXTT3=
EXTT4=
EXTT5=
EXTT6=
EXTT7=
EXTT8=
EXTT9=
EXTT10=
PLAYORDER=
